<?xml version="1.0" encoding="UTF-8" standalone="no"?>
<svg
   xmlns:dc="http://purl.org/dc/elements/1.1/"
   xmlns:cc="http://creativecommons.org/ns#"
   xmlns:rdf="http://www.w3.org/1999/02/22-rdf-syntax-ns#"
   xmlns:svg="http://www.w3.org/2000/svg"
   xmlns="http://www.w3.org/2000/svg"
   xmlns:sodipodi="http://sodipodi.sourceforge.net/DTD/sodipodi-0.dtd"
   xmlns:inkscape="http://www.inkscape.org/namespaces/inkscape"
   version="1.1"
   id="Camada_1"
   inkscape:version="1.0.2 (e86c870879, 2021-01-15)"
   sodipodi:docname="Star TV 2020.svg"
   x="0px"
   y="0px"
   viewBox="0 0 1000 366.33665"
   xml:space="preserve"
   width="1000"
   height="366.33664"><metadata
   id="metadata18"><rdf:RDF><cc:Work
       rdf:about=""><dc:format>image/svg+xml</dc:format><dc:type
         rdf:resource="http://purl.org/dc/dcmitype/StillImage" /></cc:Work></rdf:RDF></metadata><defs
   id="defs16" />
<style
   type="text/css"
   id="style2">
	.st0{fill:#241C32;}
	.st1{fill:url(#path3144_1_);}
</style>
<sodipodi:namedview
   bordercolor="#666666"
   borderopacity="1"
   gridtolerance="10"
   guidetolerance="10"
   id="namedview38"
   inkscape:current-layer="Camada_1"
   inkscape:cx="553.24466"
   inkscape:cy="274.65569"
   inkscape:pageopacity="0"
   inkscape:pageshadow="2"
   inkscape:window-height="705"
   inkscape:window-maximized="1"
   inkscape:window-width="1366"
   inkscape:window-x="-8"
   inkscape:window-y="-8"
   inkscape:zoom="0.6779608"
   objecttolerance="10"
   pagecolor="#ffffff"
   showgrid="false"
   inkscape:document-rotation="0">
	</sodipodi:namedview>
<g
   id="g135"
   transform="matrix(1.0001,0,0,1.0001,0,0.10001)">
	<path
   id="path11"
   class="st0"
   d="m 849.3,102.9 h 39.2 c 23.6,0 38.7,12.2 38.7,33.5 0,23.2 -15.1,38.3 -38.7,38.3 h -39.2 z m 67.5,118.5 c 40.6,-5.2 74.1,-40.1 74.1,-84.5 0,-57.6 -39.2,-89.2 -102.4,-89.2 h -102 v 289.9 h 62.8 V 221.4 l 77.9,116.1 h 72.7 z" />
	<polygon
   id="polygon13"
   class="st0"
   points="218.1,47.7 218.1,104.8 281.8,104.8 281.8,337.5 345.6,337.5 345.6,104.8 409.3,104.8 409.3,47.7 " />
	<path
   id="path15"
   class="st0"
   d="m 100.1,154.4 c -18.9,-8.5 -26,-17.9 -26,-30.2 0,-14.2 11.8,-26 30.7,-25.5 16.5,0.4 29.3,9.4 38.3,30.7 l 54.3,-24.1 C 182.3,66.6 151.6,44 102.1,44 49.7,44 11,78.5 11,124.7 c 0,31.6 15.6,56.6 52.4,75.1 l 40.6,20.3 c 22.6,11.4 33.5,19.8 33.5,36.3 0,17.9 -14.6,30.7 -33.5,30.7 -20.3,0 -38.7,-11.4 -47.2,-36.8 L 0,266.8 c 13.2,47.7 52.4,75.6 103.4,75.6 55.2,0 97.7,-35.4 97.7,-86.4 0,-39.2 -21.2,-65.2 -61.9,-83.5 z" />
	
		<linearGradient
   id="path3144_1_"
   gradientUnits="userSpaceOnUse"
   x1="432.90948"
   y1="-126.3625"
   x2="646.26062"
   y2="86.792999"
   gradientTransform="matrix(1.2647,0,0,-1.2647,-105.2029,190.919)">
		<stop
   offset="0.28"
   style="stop-color:#FA1660"
   id="stop8" />
		<stop
   offset="0.78"
   style="stop-color:#FF7D17"
   id="stop10" />
	</linearGradient>
	<path
   id="path3144"
   inkscape:connector-curvature="0"
   class="st1"
   d="M 769.5,139.7 H 622.4 L 576.9,-0.1 531.4,139.7 H 384.3 l 118,86.6 c 0,0 57.7,-38 127.6,-52.3 -103.1,76.1 -159.1,151.6 -159.1,151.6 v 0 0 l -12.9,40.6 119,-86.4 119,86.4 -45.4,-139.9 z"
   style="fill:url(#path3144_1_)" />
</g>
</svg>
