<?xml version="1.0" encoding="UTF-8" standalone="no"?>
<svg
   xmlns:dc="http://purl.org/dc/elements/1.1/"
   xmlns:cc="http://creativecommons.org/ns#"
   xmlns:rdf="http://www.w3.org/1999/02/22-rdf-syntax-ns#"
   xmlns:svg="http://www.w3.org/2000/svg"
   xmlns="http://www.w3.org/2000/svg"
   xmlns:sodipodi="http://sodipodi.sourceforge.net/DTD/sodipodi-0.dtd"
   xmlns:inkscape="http://www.inkscape.org/namespaces/inkscape"
   width="100"
   height="29"
   viewBox="0 0 26.458333 7.6729163"
   version="1.1"
   id="svg8"
   inkscape:version="1.0.2-2 (e86c870879, 2021-01-15)"
   sodipodi:docname="Televisa_logo.svg">
  <title
     id="title11">Blim logo</title>
  <defs
     id="defs2">
    <linearGradient
       id="linearGradient30"
       spreadMethod="pad"
       gradientTransform="matrix(0,51.810391,-52.238831,0,32.314705,-110.75441)"
       gradientUnits="userSpaceOnUse"
       y2="0"
       x2="1"
       y1="0"
       x1="0">
      <stop
         id="stop24"
         offset="0"
         style="stop-opacity:1;stop-color:#2bc3ff" />
      <stop
         id="stop26"
         offset="0.66375931"
         style="stop-opacity:1;stop-color:#2bc3ff" />
      <stop
         id="stop28"
         offset="1"
         style="stop-opacity:1;stop-color:#3882ff" />
    </linearGradient>
  </defs>
  <sodipodi:namedview
     id="base"
     pagecolor="#ffffff"
     bordercolor="#666666"
     borderopacity="1.0"
     inkscape:pageopacity="0.0"
     inkscape:pageshadow="2"
     inkscape:zoom="5.6"
     inkscape:cx="93.386243"
     inkscape:cy="29.918227"
     inkscape:document-units="px"
     inkscape:current-layer="layer1"
     inkscape:document-rotation="0"
     showgrid="false"
     units="px"
     inkscape:showpageshadow="false"
     inkscape:window-width="1366"
     inkscape:window-height="745"
     inkscape:window-x="-8"
     inkscape:window-y="-8"
     inkscape:window-maximized="1"
     objecttolerance="1"
     guidetolerance="1" />
  <metadata
     id="metadata5">
    <rdf:RDF>
      <cc:Work
         rdf:about="">
        <dc:format>image/svg+xml</dc:format>
        <dc:type
           rdf:resource="http://purl.org/dc/dcmitype/StillImage" />
        <dc:title>Blim logo</dc:title>
        <cc:license
           rdf:resource="http://scripts.sil.org/OFL" />
        <dc:date>23 feb 2021</dc:date>
      </cc:Work>
      <cc:License
         rdf:about="http://scripts.sil.org/OFL">
        <cc:permits
           rdf:resource="http://scripts.sil.org/pub/OFL/Reproduction" />
        <cc:permits
           rdf:resource="http://scripts.sil.org/pub/OFL/Distribution" />
        <cc:permits
           rdf:resource="http://scripts.sil.org/pub/OFL/Embedding" />
        <cc:permits
           rdf:resource="http://scripts.sil.org/pub/OFL/DerivativeWorks" />
        <cc:requires
           rdf:resource="http://scripts.sil.org/pub/OFL/Notice" />
        <cc:requires
           rdf:resource="http://scripts.sil.org/pub/OFL/Attribution" />
        <cc:requires
           rdf:resource="http://scripts.sil.org/pub/OFL/ShareAlike" />
        <cc:requires
           rdf:resource="http://scripts.sil.org/pub/OFL/DerivativeRenaming" />
        <cc:requires
           rdf:resource="http://scripts.sil.org/pub/OFL/BundlingWhenSelling" />
      </cc:License>
    </rdf:RDF>
  </metadata>
  <g
     inkscape:label="Capa 1"
     inkscape:groupmode="layer"
     id="layer1">
    <g
       id="#e2007dff"
       transform="matrix(0.03943157,0,0,0.03943157,-3.0524545,11.328264)"
       style="stroke-width:8.94657" />
    <g
       id="#f8f8f8ff"
       transform="matrix(0.01992735,0,0,0.01992735,19.380506,9.3611273)"
       style="stroke-width:17.7032" />
    <g
       id="#00d3f0ff"
       transform="matrix(0.02380104,0,0,0.02380104,6.8349257,7.9990721)"
       style="fill:#00ff00;stroke-width:14.8219" />
    <g
       id="g12"
       transform="matrix(0.0169771,0,0,-0.01683786,-9.0223621,32.436262)"
       style="stroke-width:1.45275">
      <g
         id="g14"
         style="stroke-width:1.45275">
        <g
           id="g20"
           style="stroke-width:1.45275">
          <g
             id="g22"
             style="stroke-width:1.45275" />
        </g>
      </g>
    </g>
    <g
       id="g246"
       transform="matrix(0.97886733,0,0,0.97886733,1.7595515,-11.389768)"
       style="stroke-width:1.02159">
      <g
         id="#010068ff-7"
         transform="matrix(0.02380104,0,0,0.02380104,6.8349257,7.9990721)"
         style="fill:#00ff00;stroke-width:15.1419">
        <path
           fill="#010068"
           opacity="1"
           d="m 523.6,181.9 c 14.57,-4.96 30.34,-6.31 45.51,-3.55 11.87,1.7 23.44,4.97 34.75,8.9 37.16,13.59 72.17,34.63 99.21,63.77 12.38,13.68 23.06,29.39 28.64,47.12 4.75,14.03 5.11,29.34 2.47,43.83 -4.06,18.69 -13.83,35.66 -25.98,50.25 -12.19,14.52 -26.65,27.04 -42.25,37.79 -0.96,0.64 -1.92,1.3 -2.94,1.84 -22.46,10.36 -46.16,19.03 -71,20.95 -21.38,1.71 -43.04,-4.96 -60.38,-17.45 -24.28,-17.21 -40.85,-43.54 -50.13,-71.49 -12.71,-39.03 -12.31,-82.3 1.46,-120.99 8.27,-23 21.61,-44.48 40.1,-60.64 l 0.54,-0.33"
           id="path13-8"
           style="fill:#010068;fill-opacity:1;stroke-width:124.567"
           sodipodi:nodetypes="ccccccccccccccc" />
      </g>
      <g
         id="#e2017dff"
         transform="matrix(0.02380104,0,0,0.02380104,6.8349257,7.9990721)"
         style="fill:#00ff00;stroke-width:15.1419">
        <path
           fill="#e2017d"
           opacity="1"
           d="m 475.58,216.49 c 12.62,-15.11 28.73,-27.78 47.48,-34.26 -18.49,16.16 -31.83,37.64 -40.1,60.64 -13.77,38.69 -14.17,81.96 -1.46,120.99 9.28,27.95 25.85,54.28 50.13,71.49 17.34,12.49 39,19.16 60.38,17.45 24.84,-1.92 48.54,-10.59 71,-20.95 -15.69,10.82 -32.79,19.51 -50.41,26.72 -16.25,6.26 -33.09,11.41 -50.5,13.03 -17.5,1.92 -35.51,-1.53 -51.1,-9.68 -16.77,-8.62 -30.81,-21.97 -41.63,-37.31 -23.85,-33.89 -32.71,-76.75 -29.13,-117.66 3.02,-32.6 14.43,-64.97 35.34,-90.46 z"
           id="path18-4"
           style="fill:#e2007d;fill-opacity:1;stroke-width:124.567" />
      </g>
      <g
         id="#1bd4efff"
         transform="matrix(0.03943157,0,0,0.03943157,-3.0524545,11.328264)"
         style="stroke-width:9.13972">
        <path
           id="path5"
           style="fill:#1bd4ef;fill-opacity:1;stroke-width:2.66147"
           d="m 78.755859,44.443359 c -0.432396,-0.01243 -0.864183,0.0058 -1.296875,0.0625 -1.677692,0.206001 -3.251604,0.994172 -4.52539,2.089844 1.310669,-0.446185 2.729107,-0.56664 4.09375,-0.318359 1.067786,0.152926 2.109543,0.445298 3.126953,0.798828 3.34279,1.222511 6.491399,3.116943 8.923828,5.738281 1.113664,1.230608 2.074214,2.643349 2.576172,4.238281 0.427294,1.262093 0.460142,2.639887 0.222656,3.94336 -0.365224,1.68129 -1.242964,3.207063 -2.335937,4.519531 -1.096572,1.306171 -2.397457,2.431403 -3.800782,3.398437 1.156843,-0.536141 2.238652,-1.220723 3.28125,-1.951171 1.191027,-0.855488 2.308049,-1.822321 3.271485,-2.929688 1.155943,-1.339455 2.118737,-2.900271 2.501953,-4.644531 0.369722,-1.511273 0.199694,-3.1262 -0.365234,-4.566406 -0.697165,-1.805431 -1.926446,-3.354755 -3.326172,-4.669922 -2.434228,-2.252516 -5.384103,-3.928567 -8.525391,-4.976563 -1.23533,-0.381866 -2.525076,-0.695146 -3.822266,-0.732422 z m -83.2988278,0.34375 c -0.3532075,0.02273 -0.6979263,0.09643 -1.0019531,0.296875 -0.551421,0.327872 -0.8702701,0.968637 -0.8613281,1.603516 -0.00447,5.017931 -0.00298,10.037219 0,15.056641 -0.022355,2.156503 0.586283,4.358648 1.9082031,6.085937 1.3487461,1.77498 3.4537504,2.890156 5.6445313,3.203125 0.9776546,0.0775 1.9603082,0.253058 2.9394531,0.07422 1.4545593,-0.07601 2.895998,-0.465311 4.1523437,-1.208984 C 10.075855,68.871602 11.414717,67.073673 12.033203,65.078125 12.79327,62.50284 12.675218,59.664424 11.623047,57.1875 10.716928,55.142771 8.9431581,53.528006 6.8417969,52.775391 4.0653175,51.858839 0.97016096,51.985316 -1.7109375,53.158203 c -0.065574,-2.205684 0.0021,-4.413456 -0.035156,-6.619141 0.028316,-0.931454 -0.8316995,-1.721322 -1.7363281,-1.742187 -0.3442655,-0.0052 -0.7073393,-0.03249 -1.0605469,-0.0098 z m 21.8730468,0.0098 c -0.262111,0.0026 -0.524631,0.02003 -0.783203,0.0625 -0.894196,0.199704 -1.497529,1.076405 -1.470703,1.976563 -0.0089,7.403945 -0.0039,14.808482 -0.0039,22.210937 -0.03577,0.924003 0.579448,1.919781 1.558593,2.013672 0.840545,0.04322 1.826428,0.197489 2.525391,-0.386719 0.487337,-0.380033 0.698238,-1.019001 0.669922,-1.621094 -0.003,-7.454616 0.0046,-14.908665 -0.0059,-22.363281 0.02534,-0.940396 -0.776604,-1.792671 -1.705078,-1.867187 -0.260807,-0.01565 -0.523045,-0.028 -0.785156,-0.02539 z m 34.177734,7.359375 c -2.427742,-0.06408 -4.974791,0.780391 -6.591796,2.658203 -0.429215,-0.380033 -0.823979,-0.80196 -1.294922,-1.132812 -1.336824,-0.980636 -2.996434,-1.414181 -4.632813,-1.521485 -2.196742,-0.0611 -4.507634,0.569562 -6.117187,2.126953 -1.040249,0.944868 -1.696701,2.317639 -1.701172,3.730469 -0.003,3.377081 -0.0093,6.754241 -0.0078,10.132813 0.003,0.710886 -0.07678,1.487343 0.330079,2.113281 0.523104,0.852467 1.672468,1.017914 2.580078,0.855469 1.00597,-0.126678 1.855413,-1.040034 1.830078,-2.06836 0.006,-3.084977 -0.0015,-6.168929 0,-9.253906 -0.0149,-1.701954 1.519573,-3.262228 3.230468,-3.232422 1.761567,-0.107303 3.409176,1.467875 3.38086,3.232422 0.0045,3.084977 -0.004,6.169392 0.002,9.255859 0.006,0.730261 0.323086,1.513462 1.017578,1.839844 0.873332,0.378543 1.917425,0.378692 2.777344,-0.03711 0.608053,-0.309988 0.957235,-0.986066 0.945312,-1.658203 0.0089,-2.782441 0.0024,-5.567169 0.0039,-8.34961 0.006,-0.661705 -0.0526,-1.342146 0.167968,-1.978515 0.403879,-1.353217 1.766293,-2.35834 3.183594,-2.304688 1.661715,-0.0462 3.246298,1.40968 3.234375,3.09375 0.0075,3.079016 0.0021,6.159266 -0.0039,9.238281 -0.0015,0.563344 0.191565,1.137961 0.582031,1.550782 0.734731,0.77646 1.952598,0.890575 2.925781,0.550781 0.758577,-0.235472 1.264904,-1.012963 1.25,-1.796875 0.01043,-3.77947 9.26e-4,-7.560837 0.0039,-11.341797 0.01341,-1.600611 -0.957055,-3.052513 -2.183594,-4.007813 -1.381533,-1.120725 -3.165446,-1.592479 -4.91211,-1.695312 z m -26.253906,0.0098 c -0.178303,0.01327 -0.355674,0.03947 -0.529297,0.08008 -1.04919,0.13711 -1.724593,1.175929 -1.611328,2.195312 0.0045,4.868899 -0.0021,9.73657 0.0039,14.605469 -0.01788,0.77497 0.379836,1.59878 1.125,1.904297 0.801795,0.299556 1.711875,0.30896 2.513671,0.002 0.672138,-0.296575 1.125769,-1.024572 1.109375,-1.757813 0.0015,-5.017931 0,-10.035265 0,-15.054687 0.01192,-0.698963 -0.389742,-1.423767 -1.041015,-1.712891 -0.49069,-0.21796 -1.035402,-0.301538 -1.570313,-0.261718 z m 50.259766,0.548828 c -0.409179,-0.006 -0.816883,0.197617 -0.972656,0.623047 -0.195818,0.777872 -0.06445,2.390625 -0.06445,2.390625 0,0 -1.703183,-0.104021 -2.527343,0.0918 -0.889988,0.322186 -0.85439,1.741897 0.06055,2 0.793893,0.140599 2.410156,0.07617 2.410156,0.07617 0,0 -0.08249,2.538045 0.09375,3.792969 0.295491,1.886835 2.000897,3.565264 3.978516,3.453125 0.779671,0.06587 1.408815,-0.923933 0.953124,-1.58789 -0.322185,-0.622938 -1.10122,-0.459225 -1.660156,-0.66211 -0.740496,-0.322182 -1.201989,-1.132061 -1.191406,-1.927734 -0.01728,-1.039537 -0.002,-3.121094 -0.002,-3.121094 l 3.519531,0.07227 c 0.991476,2.125357 1.801244,4.339609 2.75,6.486328 0.300824,0.710188 1.25888,0.955735 1.892578,0.541015 0.5269,-0.304388 0.664303,-0.941857 0.867188,-1.46875 0.717354,-2.055938 1.459237,-4.103349 2.205078,-6.15039 0.188659,-0.448566 0.143961,-1.026559 -0.263672,-1.339844 -0.489509,-0.45038 -1.389673,-0.275754 -1.621094,0.363281 -0.706669,1.712391 -1.945312,5.207032 -1.945312,5.207032 0,0 -1.315925,-3.313072 -2.074219,-4.925782 -0.259892,-0.560685 -0.853207,-0.928359 -1.472656,-0.90039 -1.286963,-0.0121 -3.865235,0.0078 -3.865235,0.0078 0,0 0.11095,-1.608497 -0.09375,-2.382812 -0.156642,-0.415699 -0.567383,-0.632649 -0.976562,-0.638672 z M 2.8515625,55.984375 c 1.0796023,-0.04527 2.1751274,0.326482 2.984375,1.050781 1.7913732,1.576766 2.3593317,4.250634 1.7050781,6.498047 -0.387485,1.393456 -1.2951103,2.682869 -2.5976562,3.353516 -1.3159589,0.701944 -3.0064474,0.585814 -4.22851565,-0.263672 -1.26826836,-0.846506 -2.00502985,-2.28948 -2.31054685,-3.75 -0.09091,-1.053661 -0.149157,-2.15064 0.2070312,-3.164063 0.43964652,-1.576766 1.59500702,-3.014467 3.1777344,-3.539062 0.3450107,-0.110284 0.7026326,-0.170457 1.0625,-0.185547 z"
           transform="matrix(6.7099364,0,0,6.7099364,77.411437,-287.28919)" />
        <path
           fill="#1bd4ef"
           opacity="1"
           d="m 235.45,13.48 c 2.63,-0.8 5.36,0.03 7.57,1.54 6.01,3.69 12.19,7.1 18.26,10.71 2.14,1.18 3.73,3.7 2.92,6.18 -0.94,3.02 -4.15,4.15 -6.59,5.67 -5.79,3.1 -11.3,6.68 -17.08,9.76 -3.18,2.26 -8.02,-0.45 -7.97,-4.3 -0.13,-8.03 -0.04,-16.06 -0.04,-24.08 -0.17,-2.19 0.97,-4.46 2.93,-5.48 z"
           id="path9"
           style="stroke-width:17.8583" />
      </g>
    </g>
  </g>
</svg>
