<?xml version="1.0" encoding="utf-8"?>
<!-- Generator: Adobe Illustrator 26.3.0, SVG Export Plug-In . SVG Version: 6.00 Build 0)  -->
<svg version="1.1" xmlns="http://www.w3.org/2000/svg" xmlns:xlink="http://www.w3.org/1999/xlink" x="0px" y="0px"
	 viewBox="0 0 512 512" style="enable-background:new 0 0 512 512;" xml:space="preserve">
<style type="text/css">
	.st0{fill:#FFFFFF;stroke:#E4A101;stroke-width:34;stroke-miterlimit:10;}
	.st1{fill:none;stroke:#E4A101;stroke-width:16;stroke-miterlimit:10;}
	.st2{fill:none;stroke:#FFED00;stroke-width:16;stroke-miterlimit:10;}
	.st3{fill:none;stroke:#E30613;stroke-width:16;stroke-miterlimit:10;}
	.st4{fill:none;stroke:#009640;stroke-width:16;stroke-miterlimit:10;}
</style>
<g id="Capa_1">
	<path class="st0" d="M462.5,468h-413c-12.7,0-23-10.3-23-23V209c0-12.7,10.3-23,23-23h413c12.7,0,23,10.3,23,23v236
		C485.5,457.7,475.2,468,462.5,468z"/>
	<line class="st1" x1="177" y1="107" x2="259.73" y2="190.26"/>
	<line class="st1" x1="339" y1="41" x2="259.73" y2="190.26"/>
	<circle class="st1" cx="171.5" cy="101.5" r="5.5"/>
	<circle class="st1" cx="341.75" cy="36.25" r="4.75"/>
</g>
<g id="Capa_2">
	<path class="st1" d="M304.93,298.36l-77.37-47.83c-8.14-5.03-18.64,0.82-18.64,10.39v95.66c0,9.57,10.5,15.43,18.64,10.39
		l77.37-47.83C312.65,314.37,312.65,303.13,304.93,298.36z"/>
</g>
<g id="Capa_3">
	<circle class="st2" cx="257.75" cy="417.75" r="4.75"/>
	<circle class="st3" cx="214.75" cy="417.75" r="4.75"/>
	<circle class="st4" cx="302.36" cy="418.75" r="4.75"/>
</g>
</svg>
